<svg width="21" height="17" viewBox="0 0 21 17" fill="none" xmlns="http://www.w3.org/2000/svg">
<path d="M17.7913 0.166992H3.20801C2.37921 0.166992 1.58435 0.496232 0.998299 1.08228C0.412248 1.66833 0.0830078 2.46319 0.0830078 3.29199V13.7087C0.0830078 14.5375 0.412248 15.3323 0.998299 15.9184C1.58435 16.5044 2.37921 16.8337 3.20801 16.8337H17.7913C18.6201 16.8337 19.415 16.5044 20.001 15.9184C20.5871 15.3323 20.9163 14.5375 20.9163 13.7087V3.29199C20.9163 2.46319 20.5871 1.66833 20.001 1.08228C19.415 0.496232 18.6201 0.166992 17.7913 0.166992V0.166992ZM3.20801 2.25033H17.7913C18.0676 2.25033 18.3326 2.36007 18.5279 2.55542C18.7233 2.75077 18.833 3.01573 18.833 3.29199L10.4997 8.37533L2.16634 3.29199C2.16634 3.01573 2.27609 2.75077 2.47144 2.55542C2.66679 2.36007 2.93174 2.25033 3.20801 2.25033V2.25033ZM18.833 13.7087C18.833 13.9849 18.7233 14.2499 18.5279 14.4452C18.3326 14.6406 18.0676 14.7503 17.7913 14.7503H3.20801C2.93174 14.7503 2.66679 14.6406 2.47144 14.4452C2.27609 14.2499 2.16634 13.9849 2.16634 13.7087V5.66699L9.95801 10.4274C10.1164 10.5188 10.296 10.567 10.4788 10.567C10.6617 10.567 10.8413 10.5188 10.9997 10.4274L18.833 5.66699V13.7087Z" fill="white"/>
</svg>
