<svg width="98" height="105" viewBox="0 0 98 105" fill="none" xmlns="http://www.w3.org/2000/svg">
<path fill-rule="evenodd" clip-rule="evenodd" d="M87.1109 89.936V85.5484H93.6442V24.122C93.6442 21.7035 91.6912 19.7344 89.2891 19.7344H42.377C43.1221 21.0266 43.5558 22.5225 43.5558 24.122V85.5484H65.3333V89.936H39.2V24.122C39.2 21.7035 37.2463 19.7344 34.8442 19.7344C32.4422 19.7344 30.4891 21.7035 30.4891 24.122V65.8042C30.4891 67.403 30.0554 68.8989 29.3103 70.1918H37.0225V74.5794H21.7775C16.9742 74.5794 13.0667 70.644 13.0667 65.8042V8.76543C13.0667 6.34693 11.1129 4.37783 8.71088 4.37783C6.30884 4.37783 4.35579 6.34693 4.35579 8.76543V10.9592H10.8891V15.3468H0V8.76543C0 3.92563 3.90749 -0.00976562 8.71088 -0.00976562C9.4643 -0.00976562 10.1913 0.0973344 10.8891 0.278634V-0.00976562H63.1558C67.9592 -0.00976562 71.8667 3.92563 71.8667 8.76543V13.153H67.5109V8.76543C67.5109 6.34693 65.5578 4.37783 63.1558 4.37783H16.2437C16.9888 5.67003 17.4225 7.16593 17.4225 8.76543V65.8042C17.4225 68.2227 19.3755 70.1918 21.7775 70.1918C24.1796 70.1918 26.1333 68.2227 26.1333 65.8042V24.122C26.1333 19.2822 30.0408 15.3468 34.8442 15.3468H89.2891C94.0925 15.3468 98 19.2822 98 24.122V89.936H87.1109ZM52.2667 54.8352V50.4476H71.8667V54.8352H52.2667ZM52.2667 32.8972H84.9333V37.2848H52.2667V32.8972ZM84.9333 46.06H52.2667V41.6724H84.9333V46.06ZM76.2225 61.4166C83.4279 61.4166 89.2891 67.3211 89.2891 74.5794C89.2891 78.4644 87.5995 81.9511 84.9333 84.3626V105.004L76.2225 99.1543L67.5109 105.004V84.3626C64.8447 81.9511 63.1558 78.4644 63.1558 74.5794C63.1558 67.3211 69.017 61.4166 76.2225 61.4166ZM71.8667 96.8065L76.2225 93.8798L80.5775 96.8065V86.9743C79.2132 87.4622 77.7508 87.7422 76.2225 87.7422C74.6934 87.7422 73.2317 87.4622 71.8667 86.9743V96.8065ZM76.2225 83.3546C81.0258 83.3546 84.9333 79.4192 84.9333 74.5794C84.9333 69.7396 81.0258 65.8042 76.2225 65.8042C71.4191 65.8042 67.5109 69.7396 67.5109 74.5794C67.5109 79.4192 71.4191 83.3546 76.2225 83.3546Z" fill="#FCA800"/>
</svg>
