<svg width="105" height="82" viewBox="0 0 105 82" fill="none" xmlns="http://www.w3.org/2000/svg">
<g clip-path="url(#clip0_616_242)">
<path fill-rule="evenodd" clip-rule="evenodd" d="M100.435 56.9444V45.5556C100.435 42.0366 88.8615 38.7222 79.891 38.7222C70.9212 38.7222 59.3481 42.0366 59.3481 45.5556V56.9444H54.7827V45.5556C54.7827 37.0339 72.0251 34.1667 79.891 34.1667C87.7576 34.1667 105 37.0339 105 45.5556V56.9444H100.435ZM79.891 31.8889C72.212 31.8889 66.1955 25.8854 66.1955 18.2222V13.6667C66.1955 6.00352 72.212 0 79.891 0C87.5707 0 93.5872 6.00352 93.5872 13.6667V18.2222C93.5872 25.8854 87.5707 31.8889 79.891 31.8889ZM89.0218 13.6667C89.0218 8.47263 85.0962 4.55556 79.891 4.55556C74.6865 4.55556 70.7609 8.47263 70.7609 13.6667V18.2222C70.7609 23.4163 74.6865 27.3333 79.891 27.3333C85.0962 27.3333 89.0218 23.4163 89.0218 18.2222V13.6667ZM54.7827 82H50.2173V77.4444H54.7827V82ZM45.6519 45.5556C45.6519 42.0366 34.0788 38.7222 25.109 38.7222C16.1385 38.7222 4.5654 42.0366 4.5654 45.5556V56.9444H0V45.5556C0 37.0339 17.2424 34.1667 25.109 34.1667C32.9749 34.1667 50.2173 37.0339 50.2173 45.5556V56.9444H45.6519V45.5556ZM25.109 31.8889C17.4293 31.8889 11.4128 25.8854 11.4128 18.2222V13.6667C11.4128 6.00352 17.4293 0 25.109 0C32.788 0 38.8045 6.00352 38.8045 13.6667V18.2222C38.8045 25.8854 32.788 31.8889 25.109 31.8889ZM34.2391 13.6667C34.2391 8.47263 30.3135 4.55556 25.109 4.55556C19.9038 4.55556 15.9782 8.47263 15.9782 13.6667V18.2222C15.9782 23.4163 19.9038 27.3333 25.109 27.3333C30.3135 27.3333 34.2391 23.4163 34.2391 18.2222V13.6667ZM24.4398 50.7783L33.5706 59.8894L30.3429 63.1106L25.109 57.8878V70.6111C25.109 74.3789 28.1806 77.4444 31.9564 77.4444H36.5218V82H31.9564C25.6641 82 20.5436 76.8908 20.5436 70.6111V57.8878L15.3097 63.1106L12.082 59.8894L21.2121 50.7783C22.1039 49.8882 23.548 49.8882 24.4398 50.7783ZM45.6519 82H41.0872V77.4444H45.6519V82ZM63.9128 82H59.3481V77.4444H63.9128V82ZM79.891 70.6111V57.8878L74.6571 63.1106L71.4294 59.8894L80.5602 50.7783C81.452 49.8882 82.8961 49.8882 83.7879 50.7783L92.918 59.8894L89.6903 63.1106L84.4564 57.8878V70.6111C84.4564 76.8908 79.3359 82 73.0436 82H68.4782V77.4444H73.0436C76.8194 77.4444 79.891 74.3789 79.891 70.6111Z" fill="#FCA800"/>
</g>
<defs>
<clipPath id="clip0_616_242">
<rect width="105" height="82" fill="white"/>
</clipPath>
</defs>
</svg>
