<svg width="105" height="97" viewBox="0 0 105 97" fill="none" xmlns="http://www.w3.org/2000/svg">
<path fill-rule="evenodd" clip-rule="evenodd" d="M100.625 56.9383V96.3569H96.25V56.9383H32.2574H24.0625H19.6875V61.3181H26.3928C31.6099 61.3181 35.2016 63.3783 36.5092 67.1198L45.5574 95.6722L41.3875 96.9965L32.3596 68.5045C31.7142 66.6622 29.701 65.6978 26.3928 65.6978H15.3125V54.0156L8.8333 47.5124L11.9308 44.4197L20.0396 52.5578H24.0625H32.2574C33.6532 52.5578 34.6696 52.179 35.3689 51.3981C36.1312 50.5433 36.4707 49.2746 36.6044 48.1781H24.7891L13.8509 37.2283H8.1949C5.5699 37.2283 4.375 39.4516 4.375 41.5174V65.6071C4.375 70.5696 7.9744 74.4573 12.5699 74.4573H27.2699L34.3315 95.6181L30.1826 97.0056L24.1192 78.8371H12.5699C5.5209 78.8371 0 73.0255 0 65.6071V41.5174C0 36.5753 3.5231 32.8486 8.1949 32.8486H15.6632L26.6007 43.7983H40.7764L40.9934 45.7446C41.0438 46.1924 41.3525 49.5811 39.8223 52.5578H105V56.9383H100.625ZM96.25 37.1376C96.25 34.6902 91.6013 32.1871 84.945 31.0491L85.68 26.7312C90.1747 27.4988 100.625 30.0503 100.625 37.1376V48.1781H96.25V37.1376ZM84.0756 22.9419L82.1744 18.9979C84.14 18.0476 85.3125 15.9614 85.3125 13.4183V10.6103C85.3125 7.61028 83.6017 4.37976 79.8441 4.37976C76.0858 4.37976 74.375 7.61028 74.375 10.6103V13.1393H70V10.6103C70 4.56111 74.2322 0 79.8441 0C85.4553 0 89.6875 4.56111 89.6875 10.6103V13.4183C89.6875 17.6828 87.5896 21.2423 84.0756 22.9419ZM78.0388 18.8953L88.5381 45.1746C88.8076 45.8494 88.7243 46.6141 88.3183 47.2158C87.9102 47.8175 87.2326 48.1781 86.5067 48.1781H47.5699C46.6865 48.1781 45.8906 47.6467 45.5511 46.8313L34.6129 20.5521C34.3315 19.8759 34.4064 19.1041 34.8124 18.4947C35.2177 17.8853 35.9002 17.519 36.6324 17.519H76.0074C76.902 17.519 77.7056 18.0645 78.0388 18.8953ZM39.9133 21.8988L49.0273 43.7983H83.2769L74.5269 21.8988H39.9133ZM18.5941 30.5677C12.9822 30.5677 8.75 25.9953 8.75 19.9314V17.1149C8.75 11.0524 12.9822 6.48002 18.5941 6.48002C24.2053 6.48002 28.4375 11.0524 28.4375 17.1149V19.9314C28.4375 25.9953 24.2053 30.5677 18.5941 30.5677ZM24.0625 17.1149C24.0625 14.1016 22.3517 10.8598 18.5941 10.8598C14.8358 10.8598 13.125 14.1016 13.125 17.1149V19.9314C13.125 22.9447 14.8358 26.1879 18.5941 26.1879C22.3517 26.1879 24.0625 22.9447 24.0625 19.9314V17.1149Z" fill="#FCA800"/>
</svg>
