<svg width="103" height="69" viewBox="0 0 103 69" fill="none" xmlns="http://www.w3.org/2000/svg">
<g clip-path="url(#clip0_616_250)">
<path fill-rule="evenodd" clip-rule="evenodd" d="M96.5629 58.2184H94.416C94.416 58.2254 94.4167 58.2311 94.4167 58.2374C94.4167 64.1714 89.5946 69 83.6689 69C77.7426 69 72.9205 64.1714 72.9205 58.2374C72.9205 58.2311 72.9212 58.2254 72.9212 58.2184H68.6667H66.5205H36.516C36.516 58.2254 36.5167 58.2311 36.5167 58.2374C36.5167 64.1714 31.6953 69 25.7689 69C19.8426 69 15.0212 64.1714 15.0212 58.2374C15.0212 58.2311 15.0219 58.2254 15.0219 58.2184H6.43715V53.9059H15.9377C17.606 50.1243 21.382 47.4755 25.7689 47.4755C30.1559 47.4755 33.9318 50.1243 35.6002 53.9059H64.375V4.3125H30.0417V0H68.6667V15.0941H83.5659C85.6946 15.0941 87.6838 16.1488 88.8848 17.9168L95.6779 30.1875H96.5629C100.412 30.1875 103 32.9679 103 37.1079V51.743C103 55.3141 100.112 58.2184 96.5629 58.2184ZM25.7689 51.788C22.2088 51.788 19.3121 54.6811 19.3121 58.2374C19.3121 61.7944 22.2088 64.6875 25.7689 64.6875C29.3291 64.6875 32.225 61.7944 32.225 58.2374C32.225 54.6811 29.3291 51.788 25.7689 51.788ZM83.6689 64.6875C87.2291 64.6875 90.125 61.7944 90.125 58.2374C90.125 54.6811 87.2291 51.788 83.6689 51.788C80.1081 51.788 77.2122 54.6811 77.2122 58.2374C77.2122 61.7944 80.1081 64.6875 83.6689 64.6875ZM98.7083 37.1079C98.7083 35.3773 97.9852 34.5 96.5629 34.5H93.1554L85.2364 20.1804C84.9386 19.7579 84.2764 19.4066 83.5659 19.4066H68.6667V53.9059H73.837C75.506 50.1243 79.282 47.4755 83.6689 47.4755C88.0559 47.4755 91.8312 50.1243 93.5002 53.9059H96.5629C97.7463 53.9059 98.7083 52.9357 98.7083 51.743V37.1079ZM70.8129 32.3441H83.2576L79.7563 27.0691L83.327 24.6745L87.9788 31.6837V36.6559H70.8129V32.3441ZM21.4583 0H25.75V4.3125H21.4583V0ZM49.3545 17.25H17.1667V12.9375H49.3545V17.25ZM8.58333 12.9375H12.875V17.25H8.58333V12.9375ZM36.4795 30.1875H0V25.875H36.4795V30.1875Z" fill="#FCA800"/>
</g>
<defs>
<clipPath id="clip0_616_250">
<rect width="103" height="69" fill="white"/>
</clipPath>
</defs>
</svg>
