<svg width="23" height="17" viewBox="0 0 23 17" fill="none" xmlns="http://www.w3.org/2000/svg">
<g clip-path="url(#clip0_578_722)">
<path d="M5.22729 16.9162V8.20394L2.47133 5.73207L0 4.36035V15.3787C0 16.2294 0.703027 16.9162 1.56822 16.9162H5.22729Z" fill="#4285F4"/>
<path d="M17.7725 16.9161H21.4315C22.2993 16.9161 22.9998 16.2268 22.9998 15.3786V4.36035L20.2006 5.93149L17.7725 8.20385V16.9161Z" fill="#34A853"/>
<path d="M5.22755 8.20423L4.85254 4.80009L5.22755 1.54199L11.5003 6.15437L17.773 1.54199L18.1924 4.62419L17.773 8.20423L11.5003 12.8166L5.22755 8.20423Z" fill="#EA4335"/>
<path d="M17.7725 1.54178V8.20401L22.9998 4.36043V2.31048C22.9998 0.409206 20.786 -0.674654 19.2362 0.465579L17.7725 1.54178Z" fill="#FBBC04"/>
<path d="M0 4.36047L2.40413 6.12829L5.22729 8.20405V1.54182L3.76355 0.465619C2.21105 -0.674702 0 0.409246 0 2.31043V4.36038V4.36047Z" fill="#C5221F"/>
</g>
<defs>
<clipPath id="clip0_578_722">
<rect width="23" height="17" fill="white"/>
</clipPath>
</defs>
</svg>
