<svg width="243" height="70" viewBox="0 0 243 70" fill="none" xmlns="http://www.w3.org/2000/svg">
<path fill-rule="evenodd" clip-rule="evenodd" d="M35.9139 0L35.9215 20.6234L58.7455 59.8616L76.6193 69.9791L35.9139 0ZM35.9215 20.6235L35.9139 0.00010735L0.015625 61.7135L35.9215 20.6235Z" fill="url(#paint0_linear_702_190)"/>
<path d="M108.122 32.1447H98.5196C97.4863 32.1447 96.5464 31.952 95.7003 31.5664C94.8542 31.1808 94.1293 30.6542 93.5259 29.9864C92.9296 29.3188 92.4682 28.534 92.1424 27.6322C91.8164 26.7303 91.6533 25.7664 91.6533 24.7407C91.6533 23.7219 91.8164 22.7651 92.1424 21.8701C92.4682 20.9683 92.9296 20.1835 93.5259 19.5158C94.1293 18.8411 94.8542 18.311 95.7003 17.9255C96.5464 17.5331 97.4863 17.3369 98.5196 17.3369H108.122V19.4538H98.5196C97.7845 19.4538 97.1222 19.5949 96.5325 19.8772C95.9498 20.1525 95.4541 20.5312 95.0448 21.0131C94.6426 21.488 94.3306 22.0457 94.1085 22.6859C93.8936 23.3261 93.7861 24.0111 93.7861 24.7407C93.7861 25.4706 93.8936 26.1588 94.1085 26.806C94.3306 27.4463 94.6426 28.0074 95.0448 28.4891C95.4541 28.9642 95.9498 29.3395 96.5325 29.6147C97.1222 29.8901 97.7845 30.0278 98.5196 30.0278H108.122V32.1447ZM127.67 32.1447H125.537V27.9108H113.636V25.8045H125.537V19.4538H117.891C117.163 19.4538 116.476 19.5949 115.831 19.8772C115.186 20.1525 114.624 20.5312 114.146 21.0131C113.667 21.488 113.286 22.0457 113.001 22.6859C112.724 23.3261 112.585 24.0111 112.585 24.7407V32.1447H110.452V24.7407C110.452 24.0593 110.539 23.4053 110.712 22.7788C110.893 22.1455 111.142 21.5569 111.462 21.0131C111.787 20.4623 112.176 19.9632 112.627 19.5158C113.084 19.0614 113.587 18.6724 114.135 18.3489C114.69 18.0253 115.283 17.7775 115.914 17.6054C116.545 17.4264 117.204 17.3369 117.891 17.3369H127.67V32.1447ZM148.466 32.1447H145.585L141.111 27.9108H134.578V25.8249H143.14C143.584 25.8249 144 25.7425 144.388 25.5773C144.777 25.405 145.113 25.1745 145.398 24.8853C145.689 24.5962 145.918 24.2588 146.084 23.8734C146.251 23.481 146.334 23.0645 146.334 22.6239C146.334 22.1833 146.251 21.7703 146.084 21.3848C145.918 20.9993 145.689 20.6654 145.398 20.3831C145.113 20.094 144.777 19.8668 144.388 19.7016C144 19.5364 143.584 19.4538 143.14 19.4538H133.382V32.1447H131.249V17.3369H143.14C143.875 17.3369 144.565 17.478 145.21 17.7603C145.855 18.0357 146.417 18.4143 146.896 18.8962C147.381 19.3712 147.763 19.9288 148.04 20.569C148.324 21.2092 148.466 21.8942 148.466 22.6239C148.466 23.2848 148.352 23.9113 148.123 24.5032C147.894 25.0885 147.579 25.6151 147.176 26.0832C146.774 26.5444 146.299 26.93 145.751 27.2397C145.21 27.5426 144.624 27.7456 143.993 27.849L148.466 32.1447ZM168.764 27.9108C168.764 28.503 168.649 29.0571 168.42 29.5735C168.198 30.083 167.893 30.5304 167.505 30.916C167.123 31.2945 166.673 31.5939 166.152 31.8143C165.632 32.0345 165.081 32.1447 164.498 32.1447H154.396V30.0278H164.498C164.79 30.0278 165.064 29.9728 165.32 29.8626C165.584 29.7524 165.813 29.601 166.007 29.4081C166.201 29.2154 166.354 28.9917 166.465 28.737C166.576 28.4755 166.631 28.2001 166.631 27.9108C166.631 27.6218 166.576 27.3499 166.465 27.0952C166.354 26.8405 166.201 26.6168 166.007 26.4239C165.813 26.2312 165.584 26.0797 165.32 25.9697C165.064 25.8595 164.79 25.8045 164.498 25.8045H154.396V23.6876H162.365C162.657 23.6876 162.931 23.6324 163.187 23.5224C163.451 23.4122 163.68 23.2607 163.874 23.068C164.068 22.8752 164.221 22.6515 164.332 22.3967C164.443 22.1351 164.498 21.8598 164.498 21.5707C164.498 21.2815 164.443 21.0096 164.332 20.7549C164.221 20.4933 164.068 20.2661 163.874 20.0734C163.68 19.8806 163.451 19.7292 163.187 19.619C162.931 19.5089 162.657 19.4538 162.365 19.4538H153.335V32.1447H151.203V17.3369H162.365C162.948 17.3369 163.499 17.4505 164.02 17.6777C164.54 17.898 164.991 18.2009 165.372 18.5864C165.761 18.965 166.066 19.4125 166.288 19.9288C166.517 20.4451 166.631 20.9924 166.631 21.5707C166.631 22.0181 166.565 22.4415 166.433 22.8408C166.301 23.2332 166.125 23.598 165.903 23.9352C166.319 24.08 166.7 24.283 167.047 24.5445C167.401 24.8063 167.702 25.1092 167.952 25.4532C168.209 25.7974 168.407 26.1795 168.545 26.5994C168.691 27.0125 168.764 27.4498 168.764 27.9108ZM189.071 24.7407C189.071 25.7664 188.908 26.7303 188.582 27.6322C188.256 28.534 187.792 29.3188 187.188 29.9864C186.592 30.6542 185.874 31.1808 185.035 31.5664C184.195 31.952 183.263 32.1447 182.236 32.1447H177.274C176.24 32.1447 175.301 31.952 174.454 31.5664C173.608 31.1808 172.883 30.6542 172.28 29.9864C171.684 29.3188 171.222 28.534 170.897 27.6322C170.571 26.7303 170.407 25.7664 170.407 24.7407C170.407 23.7219 170.571 22.7651 170.897 21.8701C171.222 20.9683 171.684 20.1835 172.28 19.5158C172.883 18.8411 173.608 18.311 174.454 17.9255C175.301 17.5331 176.24 17.3369 177.274 17.3369H182.236C183.263 17.3369 184.195 17.5331 185.035 17.9255C185.874 18.311 186.592 18.8411 187.188 19.5158C187.792 20.1835 188.256 20.9683 188.582 21.8701C188.908 22.7651 189.071 23.7219 189.071 24.7407ZM186.938 24.7407C186.938 24.0111 186.831 23.3261 186.616 22.6859C186.401 22.0457 186.089 21.488 185.68 21.0131C185.278 20.5312 184.785 20.1525 184.203 19.8772C183.627 19.5949 182.971 19.4538 182.236 19.4538H177.274C176.539 19.4538 175.876 19.5949 175.287 19.8772C174.704 20.1525 174.208 20.5312 173.799 21.0131C173.397 21.488 173.085 22.0457 172.863 22.6859C172.648 23.3261 172.54 24.0111 172.54 24.7407C172.54 25.4706 172.648 26.1588 172.863 26.806C173.085 27.4463 173.397 28.0074 173.799 28.4891C174.208 28.9642 174.704 29.3395 175.287 29.6147C175.876 29.8901 176.539 30.0278 177.274 30.0278H182.236C182.971 30.0278 183.627 29.8901 184.203 29.6147C184.785 29.3395 185.278 28.9642 185.68 28.4891C186.089 28.0074 186.401 27.4463 186.616 26.806C186.831 26.1588 186.938 25.4706 186.938 24.7407ZM109.724 57.6398H106.842L102.369 53.406H95.8355V51.3201H104.398C104.841 51.3201 105.258 51.2376 105.646 51.0724C106.034 50.9002 106.371 50.6697 106.655 50.3804C106.946 50.0914 107.175 49.7539 107.342 49.3686C107.508 48.9762 107.591 48.5595 107.591 48.119C107.591 47.6784 107.508 47.2655 107.342 46.8799C107.175 46.4943 106.946 46.1604 106.655 45.8782C106.371 45.5892 106.034 45.362 105.646 45.1968C105.258 45.0316 104.841 44.9489 104.398 44.9489H94.639V57.6398H92.5065V42.832H104.398C105.133 42.832 105.823 42.9732 106.468 43.2554C107.113 43.5308 107.675 43.9093 108.153 44.3913C108.639 44.8664 109.02 45.424 109.298 46.0641C109.582 46.7044 109.724 47.3894 109.724 48.119C109.724 48.78 109.61 49.4064 109.381 49.9983C109.152 50.5836 108.836 51.1102 108.434 51.5783C108.032 52.0396 107.557 52.4252 107.009 52.7349C106.468 53.0378 105.882 53.2408 105.251 53.3442L109.724 57.6398ZM127.889 57.6398H112.46V42.832H127.889V44.9489H114.593V55.5229H127.889V57.6398ZM126.078 51.2996H115.654V49.1827H126.078V51.2996ZM147.01 53.406C147.01 53.9981 146.899 54.5522 146.677 55.0687C146.455 55.5781 146.15 56.0255 145.762 56.4111C145.38 56.7897 144.929 57.089 144.409 57.3094C143.896 57.5296 143.345 57.6398 142.755 57.6398H129.792V55.5229H142.755C143.053 55.5229 143.331 55.4679 143.587 55.3577C143.844 55.2475 144.066 55.0962 144.253 54.9033C144.447 54.7106 144.6 54.4869 144.711 54.2322C144.822 53.9706 144.877 53.6952 144.877 53.406C144.877 53.117 144.822 52.8451 144.711 52.5904C144.6 52.3356 144.447 52.1119 144.253 51.919C144.066 51.7263 143.844 51.5748 143.587 51.4648C143.331 51.3546 143.053 51.2996 142.755 51.2996H134.058C133.475 51.2996 132.924 51.1894 132.404 50.969C131.884 50.7488 131.429 50.4492 131.041 50.0707C130.659 49.6851 130.354 49.2344 130.125 48.7179C129.903 48.2017 129.792 47.6509 129.792 47.0658C129.792 46.4875 129.903 45.9402 130.125 45.424C130.354 44.9075 130.659 44.4601 131.041 44.0816C131.429 43.696 131.884 43.3931 132.404 43.1729C132.924 42.9457 133.475 42.832 134.058 42.832H145.949V44.9489H134.058C133.767 44.9489 133.489 45.0041 133.226 45.1141C132.969 45.2243 132.743 45.3758 132.549 45.5685C132.355 45.7612 132.202 45.9884 132.092 46.2499C131.981 46.5047 131.925 46.7768 131.925 47.0658C131.925 47.3548 131.981 47.6302 132.092 47.892C132.202 48.1467 132.355 48.3704 132.549 48.5631C132.743 48.7558 132.969 48.9073 133.226 49.0175C133.489 49.1275 133.767 49.1827 134.058 49.1827H142.755C143.345 49.1827 143.896 49.2962 144.409 49.5234C144.929 49.7436 145.38 50.0467 145.762 50.4321C146.15 50.8109 146.455 51.2583 146.677 51.7745C146.899 52.2839 147.01 52.8277 147.01 53.406ZM167.328 50.2359C167.328 51.2616 167.165 52.2254 166.839 53.1273C166.513 54.0291 166.048 54.814 165.445 55.4815C164.849 56.1493 164.131 56.6759 163.291 57.0615C162.452 57.4471 161.519 57.6398 160.493 57.6398H155.53C154.497 57.6398 153.557 57.4471 152.711 57.0615C151.865 56.6759 151.14 56.1493 150.537 55.4815C149.94 54.814 149.479 54.0291 149.153 53.1273C148.827 52.2254 148.664 51.2616 148.664 50.2359C148.664 49.217 148.827 48.2602 149.153 47.3652C149.479 46.4635 149.94 45.6787 150.537 45.0109C151.14 44.3363 151.865 43.8062 152.711 43.4206C153.557 43.0282 154.497 42.832 155.53 42.832H160.493C161.519 42.832 162.452 43.0282 163.291 43.4206C164.131 43.8062 164.849 44.3363 165.445 45.0109C166.048 45.6787 166.513 46.4635 166.839 47.3652C167.165 48.2602 167.328 49.217 167.328 50.2359ZM165.195 50.2359C165.195 49.5063 165.088 48.8213 164.873 48.181C164.658 47.5407 164.346 46.9831 163.936 46.5082C163.534 46.0262 163.042 45.6477 162.459 45.3723C161.883 45.0901 161.228 44.9489 160.493 44.9489H155.53C154.795 44.9489 154.133 45.0901 153.544 45.3723C152.961 45.6477 152.465 46.0262 152.056 46.5082C151.653 46.9831 151.341 47.5407 151.119 48.181C150.904 48.8213 150.797 49.5063 150.797 50.2359C150.797 50.9657 150.904 51.654 151.119 52.3011C151.341 52.9414 151.653 53.5025 152.056 53.9843C152.465 54.4594 152.961 54.8346 153.544 55.1098C154.133 55.3852 154.795 55.5229 155.53 55.5229H160.493C161.228 55.5229 161.883 55.3852 162.459 55.1098C163.042 54.8346 163.534 54.4594 163.936 53.9843C164.346 53.5025 164.658 52.9414 164.873 52.3011C165.088 51.654 165.195 50.9657 165.195 50.2359ZM186.033 42.832L186.013 50.2359C186.013 50.9244 185.922 51.5851 185.742 52.2186C185.569 52.8451 185.319 53.4337 184.993 53.9843C184.674 54.5282 184.286 55.0273 183.828 55.4815C183.377 55.9292 182.874 56.3145 182.319 56.6381C181.771 56.9548 181.182 57.2027 180.551 57.3816C179.92 57.5538 179.261 57.6398 178.574 57.6398H177.003C176.317 57.6398 175.654 57.5538 175.016 57.3816C174.385 57.2027 173.792 56.9513 173.237 56.6278C172.689 56.3042 172.19 55.9188 171.739 55.4712C171.288 55.017 170.9 54.5179 170.574 53.9739C170.255 53.4234 170.005 52.8347 169.825 52.2083C169.652 51.5748 169.565 50.9175 169.565 50.2359V42.832H171.697V50.2359C171.697 50.9657 171.836 51.654 172.114 52.3011C172.391 52.9414 172.769 53.5025 173.248 53.9843C173.733 54.4594 174.298 54.8346 174.943 55.1098C175.588 55.3852 176.275 55.5229 177.003 55.5229H178.574C179.309 55.5229 179.999 55.3852 180.644 55.1098C181.289 54.8346 181.851 54.4594 182.33 53.9843C182.808 53.5025 183.186 52.9414 183.464 52.3011C183.741 51.654 183.88 50.9657 183.88 50.2359V42.832H186.013H186.033ZM206.33 57.6398H203.449L198.975 53.406H192.442V51.3201H201.004C201.448 51.3201 201.864 51.2376 202.252 51.0724C202.641 50.9002 202.977 50.6697 203.261 50.3804C203.553 50.0914 203.782 49.7539 203.948 49.3686C204.115 48.9762 204.198 48.5595 204.198 48.119C204.198 47.6784 204.115 47.2655 203.948 46.8799C203.782 46.4943 203.553 46.1604 203.261 45.8782C202.977 45.5892 202.641 45.362 202.252 45.1968C201.864 45.0316 201.448 44.9489 201.004 44.9489H191.246V57.6398H189.113V42.832H201.004C201.739 42.832 202.429 42.9732 203.074 43.2554C203.719 43.5308 204.281 43.9093 204.76 44.3913C205.245 44.8664 205.627 45.424 205.904 46.0641C206.188 46.7044 206.33 47.3894 206.33 48.119C206.33 48.78 206.216 49.4064 205.987 49.9983C205.758 50.5836 205.443 51.1102 205.041 51.5783C204.638 52.0396 204.163 52.4252 203.615 52.7349C203.074 53.0378 202.488 53.2408 201.857 53.3442L206.33 57.6398ZM224.682 57.6398H215.08C214.046 57.6398 213.107 57.4471 212.26 57.0615C211.414 56.6759 210.69 56.1493 210.086 55.4815C209.49 54.814 209.029 54.0291 208.703 53.1273C208.377 52.2254 208.213 51.2616 208.213 50.2359C208.213 49.217 208.377 48.2602 208.703 47.3652C209.029 46.4635 209.49 45.6787 210.086 45.0109C210.69 44.3363 211.414 43.8062 212.26 43.4206C213.107 43.0282 214.046 42.832 215.08 42.832H224.682V44.9489H215.08C214.345 44.9489 213.682 45.0901 213.093 45.3723C212.51 45.6477 212.014 46.0262 211.605 46.5082C211.203 46.9831 210.891 47.5407 210.669 48.181C210.454 48.8213 210.346 49.5063 210.346 50.2359C210.346 50.9657 210.454 51.654 210.669 52.3011C210.891 52.9414 211.203 53.5025 211.605 53.9843C212.014 54.4594 212.51 54.8346 213.093 55.1098C213.682 55.3852 214.345 55.5229 215.08 55.5229H224.682V57.6398ZM242.702 57.6398H227.273V42.832H242.702V44.9489H229.405V55.5229H242.702V57.6398ZM240.891 51.2996H230.466V49.1827H240.891V51.2996Z" fill="white"/>
<defs>
<linearGradient id="paint0_linear_702_190" x1="35.8064" y1="3.87714" x2="35.6082" y2="34.3068" gradientUnits="userSpaceOnUse">
<stop stop-color="#FB7C00"/>
<stop offset="1" stop-color="#313131"/>
</linearGradient>
</defs>
</svg>
